<svg xmlns="http://www.w3.org/2000/svg"><symbol id="icon-arrow-left" viewBox="0 0 24 24"><path d="M12 1c6.1 0 11 4.9 11 11s-4.9 11-11 11S1 18.1 1 12 5.9 1 12 1m0 23c6.6 0 12-5.4 12-12S18.6 0 12 0 0 5.4 0 12s5.4 12 12 12"/><path d="M11.3 8.1l-.7-.7L6 12l4.6 4.6.7-.7-3.4-3.4H18v-1H7.9z"/></symbol><symbol id="icon-arrow-right" viewBox="0 0 24 24"><path d="M12 1c6.1 0 11 4.9 11 11s-4.9 11-11 11S1 18.1 1 12 5.9 1 12 1m0 23c6.6 0 12-5.4 12-12S18.6 0 12 0 0 5.4 0 12s5.4 12 12 12"/><path d="M12.7 15.9l.7.7L18 12l-4.6-4.6-.7.7 3.3 3.4H6v1h10z"/></symbol><symbol id="icon-audio" viewBox="0 0 24 24"><path d="M12 1c6.1 0 11 4.9 11 11s-4.9 11-11 11S1 18.1 1 12 5.9 1 12 1m0 23c6.6 0 12-5.4 12-12S18.6 0 12 0 0 5.4 0 12s5.4 12 12 12"/><path d="M16.7 17.9L10.1 15H5.7v-5H10l6.7-5.1v13zM6.7 14h3.7l5.3 2.3V6.9L10.3 11H6.7v3z"/></symbol><symbol id="icon-book" viewBox="0 0 24 24"><path d="M12 0C5.4 0 0 5.4 0 12s5.4 12 12 12 12-5.4 12-12S18.6 0 12 0zm0 23C5.9 23 1 18.1 1 12S5.9 1 12 1s11 4.9 11 11-4.9 11-11 11zm0-15c-.9-.5-3.6-1.9-6.3.2l-.2.4v7.6l.8.4c2.6-2 5.3-.1 5.4 0h.6c.1-.1 2.7-2 5.4 0l.8-.4V8.6l-.2-.4c-2.7-2.1-5.4-.7-6.3-.2zm-5.5 7.3V8.9c2.2-1.5 4.4-.4 5 0v6.5c-.6-.3-1.6-.6-2.6-.6-.8-.1-1.6.1-2.4.5zm11 0c-2-1.1-4-.5-5 .1V8.9c.6-.4 2.8-1.5 5 0v6.4z"/></symbol><symbol id="icon-camera" viewBox="0 0 24 24"><path d="M12 0C5.4 0 0 5.4 0 12s5.4 12 12 12 12-5.4 12-12S18.6 0 12 0zm0 23C5.9 23 1 18.1 1 12S5.9 1 12 1s11 4.9 11 11-4.9 11-11 11zM9.5 10.8l-4-1.5v5.4l4-1.5V15h8V9h-8v1.8zm-3 2.5v-2.6l3 1.1v.3l-3 1.2zm4-3.3h6v4h-6v-4z"/></symbol><symbol id="icon-external-link" viewBox="0 0 24 24"><path d="M12 0C5.4 0 0 5.4 0 12s5.4 12 12 12 12-5.4 12-12S18.6 0 12 0zm0 23C5.9 23 1 18.1 1 12S5.9 1 12 1s11 4.9 11 11-4.9 11-11 11zm.5-15.1h2.8l-3.6 3.7.7.7L16 8.6v3h1V6.9h-4.5zm3.5 8H8v-8h2.8v-1H7v10h10v-3.8h-1z"/></symbol><symbol id="icon-info" viewBox="0 0 24 24"><path d="M12 0C5.4 0 0 5.4 0 12s5.4 12 12 12 12-5.4 12-12S18.6 0 12 0m0 1c6.1 0 11 4.9 11 11s-4.9 11-11 11S1 18.1 1 12 5.9 1 12 1"/><path d="M13 18h-2v-7h2v7zm0-12h-2v2h2V6z"/></symbol><symbol id="icon-x" viewBox="0 0 25 25"><path d="M12.5 24C6.2 24 1 18.8 1 12.5S6.2 1 12.5 1 24 6.2 24 12.5 18.8 24 12.5 24m0-24C5.6 0 0 5.6 0 12.5S5.6 25 12.5 25 25 19.4 25 12.5 19.4 0 12.5 0"/><path d="M16.6 7.7l-4.1 4.1-4.1-4.1-.7.7 4.1 4.1-4.1 4.1.7.7 4.1-4.1 4.1 4.1.7-.7-4.1-4.1 4.1-4.1z"/></symbol><symbol id="marker-pink" viewBox="-303 393.3 5 6.7"><style type="text/css">.st0{fill:#FF9182;}</style><path class="st0" d="M-300.5 400l-2.5-2.5v-4.2h5v4.2l-2.5 2.5zm-1.5-2.9l1.5 1.5 1.5-1.5v-2.8h-3v2.8z"/></symbol><symbol id="marker" viewBox="-303 393.3 5 6.7"><style type="text/css">.st0{fill:#FF9182;}</style><path class="st0" d="M-300.5 400l-2.5-2.5v-4.2h5v4.2l-2.5 2.5zm-1.5-2.9l1.5 1.5 1.5-1.5v-2.8h-3v2.8z"/></symbol><symbol id="pause-pink" viewBox="-293 384 25 25"><style type="text/css">.st0{fill:#FF9182;}</style><path class="st0" d="M-280.5 409c-6.9 0-12.5-5.6-12.5-12.5s5.6-12.5 12.5-12.5 12.5 5.6 12.5 12.5-5.6 12.5-12.5 12.5zm0-24c-6.3 0-11.5 5.2-11.5 11.5s5.2 11.5 11.5 11.5 11.5-5.2 11.5-11.5-5.2-11.5-11.5-11.5zm3.5 17h-1v-11h1v11zm-6 0h-1v-11h1v11z"/></symbol><symbol id="pause-white" viewBox="0 0 25 25"><circle stroke="#fff" stroke-miterlimit="10" cx="12.5" cy="12.5" r="12" fill="none"/><path stroke="#fff" stroke-miterlimit="10" d="M9.5 18V7m6 11V7" fill="none"/></symbol><symbol id="pause" viewBox="0 0 25 25"><circle cx="12.5" cy="12.5" r="12" fill="none"/><path d="M9 18V7m6 11V7" fill="none"/></symbol><symbol id="play-pink" viewBox="-293 384 25 25"><style type="text/css">.st0{fill:#FF9182;}</style><path class="st0" d="M-280.5 409c-6.9 0-12.5-5.6-12.5-12.5s5.6-12.5 12.5-12.5 12.5 5.6 12.5 12.5-5.6 12.5-12.5 12.5zm0-24c-6.3 0-11.5 5.2-11.5 11.5s5.2 11.5 11.5 11.5 11.5-5.2 11.5-11.5-5.2-11.5-11.5-11.5zm-4.5 17.8v-12.7l11.5 6.3-11.5 6.4zm1-11v9.3l8.5-4.7-8.5-4.6z"/></symbol><symbol id="play-white-big" viewBox="0 0 75 75"><circle stroke="#fff" stroke-miterlimit="10" cx="37.5" cy="37.5" r="37" fill="none"/><path stroke="#fff" stroke-miterlimit="10" d="M26.5 20.6l29.5 17-29.5 17.1z" fill="none"/></symbol><symbol id="play-white" viewBox="0 0 25 25"><circle stroke="#fff" stroke-miterlimit="10" cx="12.5" cy="12.5" r="12" fill="none"/><path stroke="#fff" stroke-miterlimit="10" d="M8 7l10 5.5L8 18z" fill="none"/></symbol><symbol id="play" viewBox="0 0 25 25"><circle cx="12.5" cy="12.5" r="12" fill="none"/><path d="M8 7l10 5.5L8 18z" fill="none"/></symbol></svg>